%TF.GenerationSoftware,KiCad,Pcbnew,9.0.7*%
%TF.CreationDate,2026-03-26T21:02:10-05:00*%
%TF.ProjectId,Saxplayer,53617870-6c61-4796-9572-2e6b69636164,rev?*%
%TF.SameCoordinates,Original*%
%TF.FileFunction,Copper,L2,Bot*%
%TF.FilePolarity,Positive*%
%FSLAX46Y46*%
G04 Gerber Fmt 4.6, Leading zero omitted, Abs format (unit mm)*
G04 Created by KiCad (PCBNEW 9.0.7) date 2026-03-26 21:02:10*
%MOMM*%
%LPD*%
G01*
G04 APERTURE LIST*
G04 Aperture macros list*
%AMRoundRect*
0 Rectangle with rounded corners*
0 $1 Rounding radius*
0 $2 $3 $4 $5 $6 $7 $8 $9 X,Y pos of 4 corners*
0 Add a 4 corners polygon primitive as box body*
4,1,4,$2,$3,$4,$5,$6,$7,$8,$9,$2,$3,0*
0 Add four circle primitives for the rounded corners*
1,1,$1+$1,$2,$3*
1,1,$1+$1,$4,$5*
1,1,$1+$1,$6,$7*
1,1,$1+$1,$8,$9*
0 Add four rect primitives between the rounded corners*
20,1,$1+$1,$2,$3,$4,$5,0*
20,1,$1+$1,$4,$5,$6,$7,0*
20,1,$1+$1,$6,$7,$8,$9,0*
20,1,$1+$1,$8,$9,$2,$3,0*%
G04 Aperture macros list end*
%TA.AperFunction,ComponentPad*%
%ADD10C,2.200000*%
%TD*%
%TA.AperFunction,ComponentPad*%
%ADD11R,1.508000X1.508000*%
%TD*%
%TA.AperFunction,ComponentPad*%
%ADD12C,1.508000*%
%TD*%
%TA.AperFunction,ComponentPad*%
%ADD13R,2.000000X2.000000*%
%TD*%
%TA.AperFunction,ComponentPad*%
%ADD14C,2.000000*%
%TD*%
%TA.AperFunction,ComponentPad*%
%ADD15R,3.200000X2.000000*%
%TD*%
%TA.AperFunction,SMDPad,CuDef*%
%ADD16RoundRect,0.500000X-0.500000X1.000000X-0.500000X-1.000000X0.500000X-1.000000X0.500000X1.000000X0*%
%TD*%
%TA.AperFunction,HeatsinkPad*%
%ADD17RoundRect,0.250000X-1.500000X1.500000X-1.500000X-1.500000X1.500000X-1.500000X1.500000X1.500000X0*%
%TD*%
%TA.AperFunction,SMDPad,CuDef*%
%ADD18RoundRect,0.250000X-0.400000X0.900000X-0.400000X-0.900000X0.400000X-0.900000X0.400000X0.900000X0*%
%TD*%
%TA.AperFunction,SMDPad,CuDef*%
%ADD19C,1.300000*%
%TD*%
%TA.AperFunction,SMDPad,CuDef*%
%ADD20R,2.800000X2.200000*%
%TD*%
%TA.AperFunction,SMDPad,CuDef*%
%ADD21R,2.800000X2.800000*%
%TD*%
%TA.AperFunction,ViaPad*%
%ADD22C,0.600000*%
%TD*%
%TA.AperFunction,Conductor*%
%ADD23C,0.200000*%
%TD*%
G04 APERTURE END LIST*
D10*
%TO.P,SW2,1,1*%
%TO.N,Net-(U2-GPIO28{slash}ADC2{slash}A2)*%
X150114000Y-93065600D03*
%TO.P,SW2,2,2*%
%TO.N,GND*%
X143764000Y-95605600D03*
%TD*%
D11*
%TO.P,DS1,1,VDD*%
%TO.N,Net-(DS1-VDD)*%
X133096000Y-55087400D03*
D12*
%TO.P,DS1,2,GND*%
%TO.N,GND*%
X135636000Y-55087400D03*
%TO.P,DS1,3,SCK*%
%TO.N,Net-(DS1-SCK)*%
X138176000Y-55087400D03*
%TO.P,DS1,4,SDA*%
%TO.N,Net-(DS1-SDA)*%
X140716000Y-55087400D03*
%TD*%
D10*
%TO.P,SW1,1,1*%
%TO.N,Net-(U2-GPIO27{slash}ADC1{slash}A1)*%
X131038600Y-93040200D03*
%TO.P,SW1,2,2*%
%TO.N,GND*%
X124688600Y-95580200D03*
%TD*%
D13*
%TO.P,SW4,A,A*%
%TO.N,Net-(U2-GPIO3{slash}MOSI)*%
X158296200Y-76784200D03*
D14*
%TO.P,SW4,B,B*%
%TO.N,Net-(U2-GPIO4{slash}MISO)*%
X158296200Y-81784200D03*
%TO.P,SW4,C,C*%
%TO.N,GND*%
X158296200Y-79284200D03*
D15*
%TO.P,SW4,MP*%
%TO.N,N/C*%
X165796200Y-73684200D03*
X165796200Y-84884200D03*
D14*
%TO.P,SW4,S1,S1*%
%TO.N,Net-(U2-GPIO7{slash}SCL)*%
X172796200Y-81784200D03*
%TO.P,SW4,S2,S2*%
%TO.N,GND*%
X172796200Y-76784200D03*
%TD*%
D10*
%TO.P,SW3,1,1*%
%TO.N,Net-(U2-GPIO29{slash}ADC3{slash}A3)*%
X169087800Y-93091000D03*
%TO.P,SW3,2,2*%
%TO.N,GND*%
X162737800Y-95631000D03*
%TD*%
D16*
%TO.P,U2,1,GPIO26/ADC0/A0*%
%TO.N,Net-(U2-GPIO26{slash}ADC0{slash}A0)*%
X121539000Y-62255400D03*
%TO.P,U2,2,GPIO27/ADC1/A1*%
%TO.N,Net-(U2-GPIO27{slash}ADC1{slash}A1)*%
X124079000Y-62255400D03*
%TO.P,U2,3,GPIO28/ADC2/A2*%
%TO.N,Net-(U2-GPIO28{slash}ADC2{slash}A2)*%
X126619000Y-62255400D03*
%TO.P,U2,4,GPIO29/ADC3/A3*%
%TO.N,Net-(U2-GPIO29{slash}ADC3{slash}A3)*%
X129159000Y-62255400D03*
%TO.P,U2,5,GPIO6/SDA*%
%TO.N,Net-(DS1-SDA)*%
X131699000Y-62255400D03*
%TO.P,U2,6,GPIO7/SCL*%
%TO.N,Net-(U2-GPIO7{slash}SCL)*%
X134239000Y-62255400D03*
%TO.P,U2,7,GPIO0/TX*%
%TO.N,unconnected-(U2-GPIO0{slash}TX-Pad7)*%
X136779000Y-62255400D03*
%TO.P,U2,8,GPIO1/RX*%
%TO.N,unconnected-(U2-GPIO1{slash}RX-Pad8)*%
X136779000Y-79255400D03*
%TO.P,U2,9,GPIO2/SCK*%
%TO.N,Net-(DS1-SCK)*%
X134239000Y-79255400D03*
%TO.P,U2,10,GPIO4/MISO*%
%TO.N,Net-(U2-GPIO4{slash}MISO)*%
X131699000Y-79255400D03*
%TO.P,U2,11,GPIO3/MOSI*%
%TO.N,Net-(U2-GPIO3{slash}MOSI)*%
X129159000Y-79255400D03*
%TO.P,U2,12,3V3*%
%TO.N,Net-(DS1-VDD)*%
X126619000Y-79255400D03*
%TO.P,U2,13,GND*%
%TO.N,unconnected-(U2-GND-Pad13)*%
X124079000Y-79255400D03*
%TO.P,U2,14,VBUS*%
%TO.N,unconnected-(U2-VBUS-Pad14)*%
X121539000Y-79255400D03*
D17*
%TO.P,U2,15*%
%TO.N,N/C*%
X129759000Y-72855400D03*
D18*
%TO.P,U2,16*%
X128759000Y-66255400D03*
%TO.P,U2,17*%
X126859000Y-66255400D03*
D19*
%TO.P,U2,18*%
X120539000Y-69485400D03*
%TO.P,U2,19*%
X123119000Y-69485400D03*
%TO.P,U2,20*%
X125659000Y-69485400D03*
%TO.P,U2,21*%
X125659000Y-72025400D03*
%TO.P,U2,22*%
X123119000Y-72025400D03*
%TO.P,U2,23*%
X120539000Y-72025400D03*
%TD*%
D20*
%TO.P,J1,R*%
%TO.N,N/C*%
X166708600Y-57745200D03*
%TO.P,J1,S*%
%TO.N,GND*%
X174108600Y-55745200D03*
D21*
%TO.P,J1,T*%
%TO.N,Net-(U2-GPIO26{slash}ADC0{slash}A0)*%
X174108600Y-65145200D03*
%TD*%
D22*
%TO.N,Net-(DS1-VDD)*%
X127076200Y-76631800D03*
%TO.N,Net-(DS1-SDA)*%
X140665200Y-59156600D03*
%TO.N,Net-(DS1-SCK)*%
X134493000Y-76733400D03*
%TO.N,Net-(U2-GPIO29{slash}ADC3{slash}A3)*%
X138531600Y-77241400D03*
%TO.N,Net-(U2-GPIO7{slash}SCL)*%
X135051800Y-60147200D03*
X135051800Y-60147200D03*
%TD*%
D23*
%TO.N,GND*%
X174108600Y-56244000D02*
X167975300Y-62377300D01*
X136691000Y-56142400D02*
X135636000Y-55087400D01*
X124739400Y-95631000D02*
X124688600Y-95580200D01*
X168325800Y-65328800D02*
X167975300Y-64978300D01*
X168325800Y-65328800D02*
X170926800Y-65328800D01*
X141390600Y-56142400D02*
X136691000Y-56142400D01*
X162737800Y-95631000D02*
X124739400Y-95631000D01*
X174108600Y-55745200D02*
X174108600Y-56244000D01*
X172796200Y-67198200D02*
X172796200Y-76784200D01*
X163236400Y-57638400D02*
X142886600Y-57638400D01*
X164431200Y-58833200D02*
X163236400Y-57638400D01*
X164431200Y-58833200D02*
X167975300Y-62377300D01*
X167975300Y-64978300D02*
X167975300Y-62377300D01*
X142886600Y-57638400D02*
X141390600Y-56142400D01*
X170926800Y-65328800D02*
X172796200Y-67198200D01*
%TO.N,Net-(DS1-VDD)*%
X127076200Y-76631800D02*
X126619000Y-77089000D01*
X126619000Y-77089000D02*
X126619000Y-79255400D01*
%TO.N,Net-(DS1-SDA)*%
X133297800Y-59156600D02*
X140665200Y-59156600D01*
X131699000Y-60755400D02*
X133297800Y-59156600D01*
X131699000Y-62255400D02*
X131699000Y-60755400D01*
%TO.N,Net-(DS1-SCK)*%
X134493000Y-76733400D02*
X134239000Y-76987400D01*
X134239000Y-76987400D02*
X134239000Y-79255400D01*
%TO.N,Net-(U2-GPIO26{slash}ADC0{slash}A0)*%
X173335092Y-78085200D02*
X172257308Y-78085200D01*
X174108600Y-65145200D02*
X174108600Y-77311692D01*
X171495200Y-77323092D02*
X171495200Y-75297200D01*
X171495200Y-75297200D02*
X164431200Y-68233200D01*
X124529400Y-57765000D02*
X121539000Y-60755400D01*
X121539000Y-60755400D02*
X121539000Y-62255400D01*
X142446100Y-57765000D02*
X124529400Y-57765000D01*
X152914300Y-68233200D02*
X142446100Y-57765000D01*
X172257308Y-78085200D02*
X171495200Y-77323092D01*
X164431200Y-68233200D02*
X152914300Y-68233200D01*
X174108600Y-77311692D02*
X173335092Y-78085200D01*
%TO.N,Net-(U2-GPIO27{slash}ADC1{slash}A1)*%
X124079000Y-62255400D02*
X124079000Y-74075342D01*
X124079000Y-74075342D02*
X120238000Y-77916342D01*
X120238000Y-77916342D02*
X120238000Y-80683966D01*
X131038600Y-91484566D02*
X131038600Y-93040200D01*
X120238000Y-80683966D02*
X131038600Y-91484566D01*
%TO.N,Net-(U2-GPIO28{slash}ADC2{slash}A2)*%
X153424300Y-93065600D02*
X163367400Y-83122500D01*
X150114000Y-93065600D02*
X153424300Y-93065600D01*
X163367400Y-79253400D02*
X142280000Y-58166000D01*
X163367400Y-83122500D02*
X163367400Y-79253400D01*
X126619000Y-61163200D02*
X126619000Y-62255400D01*
X142280000Y-58166000D02*
X129616200Y-58166000D01*
X129616200Y-58166000D02*
X126619000Y-61163200D01*
%TO.N,Net-(U2-GPIO29{slash}ADC3{slash}A3)*%
X138531600Y-77241400D02*
X138531600Y-73128000D01*
X138531600Y-73128000D02*
X129159000Y-63755400D01*
X129159000Y-63755400D02*
X129159000Y-62255400D01*
%TO.N,Net-(U2-GPIO7{slash}SCL)*%
X135051800Y-61442600D02*
X134239000Y-62255400D01*
X135051800Y-60147200D02*
X135051800Y-61442600D01*
%TO.N,Net-(U2-GPIO4{slash}MISO)*%
X131699000Y-79255400D02*
X131699000Y-80755400D01*
X131699000Y-80755400D02*
X132727800Y-81784200D01*
X132727800Y-81784200D02*
X158296200Y-81784200D01*
%TO.N,Net-(U2-GPIO3{slash}MOSI)*%
X162966400Y-82956400D02*
X162966400Y-81454400D01*
X156387800Y-83108800D02*
X157683200Y-84404200D01*
X129159000Y-80755400D02*
X133163400Y-84759800D01*
X157683200Y-84404200D02*
X161518600Y-84404200D01*
X162966400Y-81454400D02*
X158296200Y-76784200D01*
X133163400Y-84759800D02*
X149631400Y-84759800D01*
X151282400Y-83108800D02*
X156387800Y-83108800D01*
X129159000Y-79255400D02*
X129159000Y-80755400D01*
X161518600Y-84404200D02*
X162966400Y-82956400D01*
X149631400Y-84759800D02*
X151282400Y-83108800D01*
%TD*%
M02*
