M48
; DRILL file {KiCad 9.0.7} date 2026-03-29T18:43:36-0500
; FORMAT={-:-/ absolute / metric / decimal}
; #@! TF.CreationDate,2026-03-29T18:43:36-05:00
; #@! TF.GenerationSoftware,Kicad,Pcbnew,9.0.7
; #@! TF.FileFunction,Plated,1,2,PTH
FMAT,2
METRIC
; #@! TA.AperFunction,Plated,PTH,ViaDrill
T1C0.300
; #@! TA.AperFunction,Plated,PTH,ComponentDrill
T2C0.800
; #@! TA.AperFunction,Plated,PTH,ComponentDrill
T3C1.000
; #@! TA.AperFunction,Plated,PTH,ComponentDrill
T4C1.500
%
G90
G05
T1
X114.63Y-83.795
X116.076Y-76.149
X118.059Y-74.346
X118.059Y-83.033
X121.285Y-58.776
X122.225Y-69.977
X126.898Y-83.845
X127.787Y-90.018
X128.397Y-85.674
X128.575Y-68.097
X130.835Y-83.591
X137.795Y-58.877
X141.224Y-101.727
X155.194Y-65.684
X158.14Y-61.544
X158.191Y-85.547
X163.017Y-78.359
X164.287Y-88.849
X164.313Y-79.985
X171.25Y-54.331
X172.542Y-54.762
X174.32Y-53.823
X181.051Y-88.748
X181.737Y-55.55
X190.881Y-86.792
X196.952Y-74.117
X201.549Y-88.443
X202.997Y-94.285
X203.911Y-87.808
X205.537Y-79.477
X217.742Y-69.329
X220.751Y-71.349
T2
X106.817Y-55.474
X106.817Y-80.874
X108.763Y-85.028
X108.763Y-90.028
X108.991Y-95.061
X108.991Y-100.061
X109.357Y-55.474
X109.357Y-80.874
X111.897Y-55.474
X111.897Y-80.874
X114.437Y-55.474
X114.437Y-80.874
X116.977Y-55.474
X116.977Y-80.874
X119.517Y-55.474
X119.517Y-80.874
X122.057Y-55.474
X122.057Y-80.874
X124.597Y-55.474
X124.597Y-80.874
X127.137Y-55.474
X127.137Y-80.874
X129.677Y-55.474
X129.677Y-80.874
X132.217Y-55.474
X132.217Y-80.874
X134.757Y-55.474
X134.757Y-80.874
X137.297Y-55.474
X137.297Y-80.874
X139.837Y-55.474
X139.837Y-80.874
X142.377Y-55.474
X142.377Y-80.874
X144.917Y-55.474
X144.917Y-80.874
X147.457Y-55.474
X147.457Y-80.874
X149.994Y-80.87
X149.997Y-55.474
X152.534Y-80.87
X152.537Y-55.474
X192.654Y-81.28
X192.775Y-76.86
X193.904Y-53.315
X193.904Y-60.935
X193.904Y-64.338
X193.904Y-71.958
X195.154Y-81.28
X195.275Y-76.86
X199.212Y-64.44
X199.212Y-72.06
X199.263Y-53.289
X199.263Y-60.909
X201.051Y-76.86
X203.051Y-76.86
X206.629Y-72.365
X206.934Y-98.577
X214.249Y-72.365
X214.554Y-98.577
T3
X116.677Y-90.464
X116.677Y-92.964
X116.677Y-95.464
X131.177Y-90.464
X131.177Y-95.464
X168.427Y-52.074
X170.967Y-52.074
X173.507Y-52.074
X176.047Y-52.074
T4
X149.377Y-91.846
X155.727Y-89.306
X168.427Y-91.846
X174.777Y-89.306
X187.427Y-91.846
X193.777Y-89.306
T4
G00X123.527Y-87.364
M15
G01X124.827Y-87.364
M16
G05
G00X123.527Y-98.564
M15
G01X124.827Y-98.564
M16
G05
M30
