%TF.GenerationSoftware,KiCad,Pcbnew,9.0.7*%
%TF.CreationDate,2026-03-26T21:02:11-05:00*%
%TF.ProjectId,Saxplayer,53617870-6c61-4796-9572-2e6b69636164,rev?*%
%TF.SameCoordinates,Original*%
%TF.FileFunction,Soldermask,Bot*%
%TF.FilePolarity,Negative*%
%FSLAX46Y46*%
G04 Gerber Fmt 4.6, Leading zero omitted, Abs format (unit mm)*
G04 Created by KiCad (PCBNEW 9.0.7) date 2026-03-26 21:02:11*
%MOMM*%
%LPD*%
G01*
G04 APERTURE LIST*
G04 Aperture macros list*
%AMRoundRect*
0 Rectangle with rounded corners*
0 $1 Rounding radius*
0 $2 $3 $4 $5 $6 $7 $8 $9 X,Y pos of 4 corners*
0 Add a 4 corners polygon primitive as box body*
4,1,4,$2,$3,$4,$5,$6,$7,$8,$9,$2,$3,0*
0 Add four circle primitives for the rounded corners*
1,1,$1+$1,$2,$3*
1,1,$1+$1,$4,$5*
1,1,$1+$1,$6,$7*
1,1,$1+$1,$8,$9*
0 Add four rect primitives between the rounded corners*
20,1,$1+$1,$2,$3,$4,$5,0*
20,1,$1+$1,$4,$5,$6,$7,0*
20,1,$1+$1,$6,$7,$8,$9,0*
20,1,$1+$1,$8,$9,$2,$3,0*%
G04 Aperture macros list end*
%ADD10C,1.700000*%
%ADD11C,4.000000*%
%ADD12C,2.200000*%
%ADD13C,3.000000*%
%ADD14RoundRect,0.102000X-0.754000X-0.754000X0.754000X-0.754000X0.754000X0.754000X-0.754000X0.754000X0*%
%ADD15C,1.712000*%
%ADD16R,2.000000X2.000000*%
%ADD17C,2.000000*%
%ADD18R,3.200000X2.000000*%
%ADD19RoundRect,0.500000X-0.500000X1.000000X-0.500000X-1.000000X0.500000X-1.000000X0.500000X1.000000X0*%
%ADD20RoundRect,0.250000X-1.500000X1.500000X-1.500000X-1.500000X1.500000X-1.500000X1.500000X1.500000X0*%
%ADD21RoundRect,0.250000X-0.400000X0.900000X-0.400000X-0.900000X0.400000X-0.900000X0.400000X0.900000X0*%
%ADD22C,1.300000*%
%ADD23R,2.800000X2.200000*%
%ADD24R,2.800000X2.800000*%
G04 APERTURE END LIST*
D10*
%TO.C,SW2*%
X142494000Y-98145600D03*
D11*
X147574000Y-98145600D03*
D10*
X152654000Y-98145600D03*
D12*
X150114000Y-93065600D03*
X143764000Y-95605600D03*
%TD*%
D13*
%TO.C,DS1*%
X121156000Y-55787400D03*
X121156000Y-85487400D03*
X152656000Y-55787400D03*
X152656000Y-85487400D03*
D14*
X133096000Y-55087400D03*
D15*
X135636000Y-55087400D03*
X138176000Y-55087400D03*
X140716000Y-55087400D03*
%TD*%
D10*
%TO.C,SW1*%
X123418600Y-98120200D03*
D11*
X128498600Y-98120200D03*
D10*
X133578600Y-98120200D03*
D12*
X131038600Y-93040200D03*
X124688600Y-95580200D03*
%TD*%
D16*
%TO.C,SW4*%
X158296200Y-76784200D03*
D17*
X158296200Y-81784200D03*
X158296200Y-79284200D03*
D18*
X165796200Y-73684200D03*
X165796200Y-84884200D03*
D17*
X172796200Y-81784200D03*
X172796200Y-76784200D03*
%TD*%
D10*
%TO.C,SW3*%
X161467800Y-98171000D03*
D11*
X166547800Y-98171000D03*
D10*
X171627800Y-98171000D03*
D12*
X169087800Y-93091000D03*
X162737800Y-95631000D03*
%TD*%
D19*
%TO.C,U2*%
X121539000Y-62255400D03*
X124079000Y-62255400D03*
X126619000Y-62255400D03*
X129159000Y-62255400D03*
X131699000Y-62255400D03*
X134239000Y-62255400D03*
X136779000Y-62255400D03*
X136779000Y-79255400D03*
X134239000Y-79255400D03*
X131699000Y-79255400D03*
X129159000Y-79255400D03*
X126619000Y-79255400D03*
X124079000Y-79255400D03*
X121539000Y-79255400D03*
D20*
X129759000Y-72855400D03*
D21*
X128759000Y-66255400D03*
X126859000Y-66255400D03*
D22*
X120539000Y-69485400D03*
X123119000Y-69485400D03*
X125659000Y-69485400D03*
X125659000Y-72025400D03*
X123119000Y-72025400D03*
X120539000Y-72025400D03*
%TD*%
D10*
%TO.C,J1*%
X170408600Y-63845200D03*
X170408600Y-56845200D03*
D23*
X166708600Y-57745200D03*
X174108600Y-55745200D03*
D24*
X174108600Y-65145200D03*
%TD*%
M02*
