%TF.GenerationSoftware,KiCad,Pcbnew,9.0.7*%
%TF.CreationDate,2026-03-29T18:43:26-05:00*%
%TF.ProjectId,Saxplayer,53617870-6c61-4796-9572-2e6b69636164,rev?*%
%TF.SameCoordinates,Original*%
%TF.FileFunction,Copper,L2,Bot*%
%TF.FilePolarity,Positive*%
%FSLAX46Y46*%
G04 Gerber Fmt 4.6, Leading zero omitted, Abs format (unit mm)*
G04 Created by KiCad (PCBNEW 9.0.7) date 2026-03-29 18:43:26*
%MOMM*%
%LPD*%
G01*
G04 APERTURE LIST*
G04 Aperture macros list*
%AMRoundRect*
0 Rectangle with rounded corners*
0 $1 Rounding radius*
0 $2 $3 $4 $5 $6 $7 $8 $9 X,Y pos of 4 corners*
0 Add a 4 corners polygon primitive as box body*
4,1,4,$2,$3,$4,$5,$6,$7,$8,$9,$2,$3,0*
0 Add four circle primitives for the rounded corners*
1,1,$1+$1,$2,$3*
1,1,$1+$1,$4,$5*
1,1,$1+$1,$6,$7*
1,1,$1+$1,$8,$9*
0 Add four rect primitives between the rounded corners*
20,1,$1+$1,$2,$3,$4,$5,0*
20,1,$1+$1,$4,$5,$6,$7,0*
20,1,$1+$1,$6,$7,$8,$9,0*
20,1,$1+$1,$8,$9,$2,$3,0*%
G04 Aperture macros list end*
%TA.AperFunction,ComponentPad*%
%ADD10C,2.200000*%
%TD*%
%TA.AperFunction,ComponentPad*%
%ADD11R,1.508000X1.508000*%
%TD*%
%TA.AperFunction,ComponentPad*%
%ADD12C,1.508000*%
%TD*%
%TA.AperFunction,ComponentPad*%
%ADD13C,1.600000*%
%TD*%
%TA.AperFunction,ComponentPad*%
%ADD14RoundRect,0.250000X-0.550000X-0.550000X0.550000X-0.550000X0.550000X0.550000X-0.550000X0.550000X0*%
%TD*%
%TA.AperFunction,ComponentPad*%
%ADD15R,2.000000X2.000000*%
%TD*%
%TA.AperFunction,ComponentPad*%
%ADD16C,2.000000*%
%TD*%
%TA.AperFunction,ComponentPad*%
%ADD17R,3.200000X2.000000*%
%TD*%
%TA.AperFunction,ComponentPad*%
%ADD18R,1.200000X2.000000*%
%TD*%
%TA.AperFunction,ComponentPad*%
%ADD19O,1.200000X2.000000*%
%TD*%
%TA.AperFunction,ViaPad*%
%ADD20C,0.600000*%
%TD*%
%TA.AperFunction,Conductor*%
%ADD21C,0.200000*%
%TD*%
G04 APERTURE END LIST*
D10*
%TO.P,SW2,1,1*%
%TO.N,GPIO33*%
X174777400Y-89306400D03*
%TO.P,SW2,2,2*%
%TO.N,GND*%
X168427400Y-91846400D03*
%TD*%
D11*
%TO.P,DS1,1,VDD*%
%TO.N,3V3*%
X168427400Y-52073700D03*
D12*
%TO.P,DS1,2,GND*%
%TO.N,GND*%
X170967400Y-52073700D03*
%TO.P,DS1,3,SCK*%
%TO.N,GPIO22*%
X173507400Y-52073700D03*
%TO.P,DS1,4,SDA*%
%TO.N,GPIO21*%
X176047400Y-52073700D03*
%TD*%
D13*
%TO.P,R6,1*%
%TO.N,GPIO34*%
X206933800Y-98577400D03*
%TO.P,R6,2*%
%TO.N,3V3*%
X214553800Y-98577400D03*
%TD*%
D10*
%TO.P,SW1,1,1*%
%TO.N,GPIO32*%
X155727400Y-89306400D03*
%TO.P,SW1,2,2*%
%TO.N,GND*%
X149377400Y-91846400D03*
%TD*%
D13*
%TO.P,R5,1*%
%TO.N,3V3*%
X214249000Y-72364600D03*
%TO.P,R5,2*%
%TO.N,GPIO19*%
X206629000Y-72364600D03*
%TD*%
D14*
%TO.P,C3,1*%
%TO.N,3V3*%
X201051088Y-76860400D03*
D13*
%TO.P,C3,2*%
%TO.N,GND*%
X203051088Y-76860400D03*
%TD*%
D15*
%TO.P,SW4,A,A*%
%TO.N,GPIO14*%
X116676600Y-90464000D03*
D16*
%TO.P,SW4,B,B*%
%TO.N,GPIO13*%
X116676600Y-95464000D03*
%TO.P,SW4,C,C*%
%TO.N,Net-(C4-Pad1)*%
X116676600Y-92964000D03*
D17*
%TO.P,SW4,MP*%
%TO.N,N/C*%
X124176600Y-87364000D03*
X124176600Y-98564000D03*
D16*
%TO.P,SW4,S1,S1*%
%TO.N,GPIO27*%
X131176600Y-95464000D03*
%TO.P,SW4,S2,S2*%
%TO.N,Net-(C5-Pad1)*%
X131176600Y-90464000D03*
%TD*%
D10*
%TO.P,SW3,1,1*%
%TO.N,GPIO34*%
X193776600Y-89306400D03*
%TO.P,SW3,2,2*%
%TO.N,GND*%
X187426600Y-91846400D03*
%TD*%
D13*
%TO.P,R1,1*%
%TO.N,3V3*%
X193903600Y-60934600D03*
%TO.P,R1,2*%
%TO.N,GPIO5*%
X193903600Y-53314600D03*
%TD*%
%TO.P,C5,1*%
%TO.N,Net-(C5-Pad1)*%
X195153600Y-81280000D03*
%TO.P,C5,2*%
%TO.N,GND*%
X192653600Y-81280000D03*
%TD*%
%TO.P,C2,1*%
%TO.N,Net-(C2-Pad1)*%
X108762800Y-90028400D03*
%TO.P,C2,2*%
%TO.N,GPIO25*%
X108762800Y-85028400D03*
%TD*%
%TO.P,C4,1*%
%TO.N,Net-(C4-Pad1)*%
X195275200Y-76860400D03*
%TO.P,C4,2*%
%TO.N,GND*%
X192775200Y-76860400D03*
%TD*%
%TO.P,R3,1*%
%TO.N,3V3*%
X193903600Y-71958200D03*
%TO.P,R3,2*%
%TO.N,GPIO22*%
X193903600Y-64338200D03*
%TD*%
%TO.P,C1,1*%
%TO.N,Net-(C1-Pad1)*%
X108991400Y-100061400D03*
%TO.P,C1,2*%
%TO.N,GPIO26*%
X108991400Y-95061400D03*
%TD*%
%TO.P,R4,1*%
%TO.N,3V3*%
X199212200Y-72059800D03*
%TO.P,R4,2*%
%TO.N,GPIO21*%
X199212200Y-64439800D03*
%TD*%
%TO.P,R2,1*%
%TO.N,3V3*%
X199263000Y-60909200D03*
%TO.P,R2,2*%
%TO.N,GPIO23*%
X199263000Y-53289200D03*
%TD*%
D18*
%TO.P,U1,1,3V3*%
%TO.N,3V3*%
X106817160Y-55473600D03*
D19*
%TO.P,U1,2,CHIP_PU*%
%TO.N,unconnected-(U1-CHIP_PU-Pad2)*%
X109357160Y-55473600D03*
%TO.P,U1,3,SENSOR_VP/GPIO36/ADC1_CH0*%
%TO.N,unconnected-(U1-SENSOR_VP{slash}GPIO36{slash}ADC1_CH0-Pad3)*%
X111897160Y-55473600D03*
%TO.P,U1,4,SENSOR_VN/GPIO39/ADC1_CH3*%
%TO.N,unconnected-(U1-SENSOR_VN{slash}GPIO39{slash}ADC1_CH3-Pad4)*%
X114437160Y-55473600D03*
%TO.P,U1,5,VDET_1/GPIO34/ADC1_CH6*%
%TO.N,GPIO34*%
X116977160Y-55473600D03*
%TO.P,U1,6,VDET_2/GPIO35/ADC1_CH7*%
%TO.N,unconnected-(U1-VDET_2{slash}GPIO35{slash}ADC1_CH7-Pad6)*%
X119517160Y-55473600D03*
%TO.P,U1,7,32K_XP/GPIO32/ADC1_CH4*%
%TO.N,GPIO32*%
X122057160Y-55473600D03*
%TO.P,U1,8,32K_XN/GPIO33/ADC1_CH5*%
%TO.N,GPIO33*%
X124597160Y-55473600D03*
%TO.P,U1,9,DAC_1/ADC2_CH8/GPIO25*%
%TO.N,GPIO25*%
X127137160Y-55473600D03*
%TO.P,U1,10,DAC_2/ADC2_CH9/GPIO26*%
%TO.N,GPIO26*%
X129677160Y-55473600D03*
%TO.P,U1,11,ADC2_CH7/GPIO27*%
%TO.N,GPIO27*%
X132217160Y-55473600D03*
%TO.P,U1,12,MTMS/GPIO14/ADC2_CH6*%
%TO.N,GPIO14*%
X134757160Y-55473600D03*
%TO.P,U1,13,MTDI/GPIO12/ADC2_CH5*%
%TO.N,unconnected-(U1-MTDI{slash}GPIO12{slash}ADC2_CH5-Pad13)*%
X137297160Y-55473600D03*
%TO.P,U1,14,GND*%
%TO.N,GND*%
X139837160Y-55473600D03*
%TO.P,U1,15,MTCK/GPIO13/ADC2_CH4*%
%TO.N,GPIO13*%
X142377160Y-55473600D03*
%TO.P,U1,16,SD_DATA2/GPIO9*%
%TO.N,unconnected-(U1-SD_DATA2{slash}GPIO9-Pad16)*%
X144917160Y-55473600D03*
%TO.P,U1,17,SD_DATA3/GPIO10*%
%TO.N,unconnected-(U1-SD_DATA3{slash}GPIO10-Pad17)*%
X147457160Y-55473600D03*
%TO.P,U1,18,CMD*%
%TO.N,unconnected-(U1-CMD-Pad18)*%
X149997160Y-55473600D03*
%TO.P,U1,19,5V*%
%TO.N,unconnected-(U1-5V-Pad19)*%
X152537160Y-55473600D03*
%TO.P,U1,20,SD_CLK/GPIO6*%
%TO.N,unconnected-(U1-SD_CLK{slash}GPIO6-Pad20)*%
X152534440Y-80869920D03*
%TO.P,U1,21,SD_DATA0/GPIO7*%
%TO.N,unconnected-(U1-SD_DATA0{slash}GPIO7-Pad21)*%
X149994440Y-80869920D03*
%TO.P,U1,22,SD_DATA1/GPIO8*%
%TO.N,unconnected-(U1-SD_DATA1{slash}GPIO8-Pad22)*%
X147457160Y-80873600D03*
%TO.P,U1,23,MTDO/GPIO15/ADC2_CH3*%
%TO.N,unconnected-(U1-MTDO{slash}GPIO15{slash}ADC2_CH3-Pad23)*%
X144917160Y-80873600D03*
%TO.P,U1,24,ADC2_CH2/GPIO2*%
%TO.N,unconnected-(U1-ADC2_CH2{slash}GPIO2-Pad24)*%
X142377160Y-80873600D03*
%TO.P,U1,25,GPIO0/BOOT/ADC2_CH1*%
%TO.N,unconnected-(U1-GPIO0{slash}BOOT{slash}ADC2_CH1-Pad25)*%
X139837160Y-80873600D03*
%TO.P,U1,26,ADC2_CH0/GPIO4*%
%TO.N,unconnected-(U1-ADC2_CH0{slash}GPIO4-Pad26)*%
X137297160Y-80873600D03*
%TO.P,U1,27,GPIO16*%
%TO.N,unconnected-(U1-GPIO16-Pad27)*%
X134757160Y-80873600D03*
%TO.P,U1,28,GPIO17*%
%TO.N,unconnected-(U1-GPIO17-Pad28)*%
X132217160Y-80873600D03*
%TO.P,U1,29,GPIO5*%
%TO.N,GPIO5*%
X129677160Y-80873600D03*
%TO.P,U1,30,GPIO18*%
%TO.N,GPIO18*%
X127137160Y-80873600D03*
%TO.P,U1,31,GPIO19*%
%TO.N,GPIO19*%
X124597160Y-80873600D03*
%TO.P,U1,32,GND*%
%TO.N,GND*%
X122057160Y-80873600D03*
%TO.P,U1,33,GPIO21*%
%TO.N,GPIO21*%
X119517160Y-80873600D03*
%TO.P,U1,34,U0RXD/GPIO3*%
%TO.N,unconnected-(U1-U0RXD{slash}GPIO3-Pad34)*%
X116977160Y-80873600D03*
%TO.P,U1,35,U0TXD/GPIO1*%
%TO.N,unconnected-(U1-U0TXD{slash}GPIO1-Pad35)*%
X114437160Y-80873600D03*
%TO.P,U1,36,GPIO22*%
%TO.N,GPIO22*%
X111897160Y-80873600D03*
%TO.P,U1,37,GPIO23*%
%TO.N,GPIO23*%
X109357160Y-80873600D03*
%TO.P,U1,38,GND*%
%TO.N,GND*%
X106817160Y-80873600D03*
%TD*%
D20*
%TO.N,Net-(C1-Pad1)*%
X217741500Y-69329300D03*
X141224000Y-101727000D03*
X220751400Y-71348600D03*
%TO.N,GPIO26*%
X116076160Y-76149200D03*
X114630200Y-83794600D03*
%TO.N,3V3*%
X203911200Y-87807800D03*
X202996800Y-94284800D03*
%TO.N,GPIO21*%
X174320200Y-53822600D03*
X126898400Y-83845400D03*
X172542200Y-54762400D03*
%TO.N,GPIO22*%
X128397000Y-85674200D03*
X171250500Y-54330600D03*
%TO.N,GPIO5*%
X158140400Y-61544200D03*
%TO.N,GPIO19*%
X201549000Y-88442800D03*
X196951600Y-74117200D03*
X205536800Y-79476600D03*
%TO.N,GPIO23*%
X155194000Y-65684400D03*
X181737000Y-55549800D03*
%TO.N,GPIO18*%
X190881000Y-86791800D03*
X158191200Y-85547200D03*
%TO.N,GPIO34*%
X121285000Y-58775600D03*
X163017200Y-78359000D03*
X181051200Y-88747600D03*
%TO.N,GPIO33*%
X164287200Y-88849200D03*
X164312600Y-79984600D03*
%TO.N,GPIO27*%
X137795000Y-58877200D03*
X127787400Y-90017600D03*
X130835400Y-83591400D03*
X128574800Y-68097400D03*
%TO.N,GPIO13*%
X122224800Y-69977000D03*
%TO.N,GPIO14*%
X118059200Y-74345800D03*
X118059200Y-83032600D03*
%TD*%
D21*
%TO.N,GND*%
X192653600Y-81280000D02*
X192653600Y-86619400D01*
X192653600Y-86619400D02*
X187426600Y-91846400D01*
X192775200Y-76860400D02*
X192775200Y-81158400D01*
X123358160Y-82174600D02*
X122057160Y-80873600D01*
X192775200Y-76860400D02*
X193876200Y-77961400D01*
X139705600Y-82174600D02*
X123358160Y-82174600D01*
X192775200Y-81158400D02*
X192653600Y-81280000D01*
X108118160Y-79572600D02*
X120756160Y-79572600D01*
X139837160Y-55473600D02*
X122057160Y-73253600D01*
X201950088Y-77961400D02*
X203051088Y-76860400D01*
X120756160Y-79572600D02*
X122057160Y-80873600D01*
X122057160Y-73253600D02*
X122057160Y-80873600D01*
X149377400Y-91846400D02*
X139705600Y-82174600D01*
X106817160Y-80873600D02*
X108118160Y-79572600D01*
X193876200Y-77961400D02*
X201950088Y-77961400D01*
%TO.N,Net-(C1-Pad1)*%
X108991400Y-100061400D02*
X139431400Y-100061400D01*
X219760800Y-71348600D02*
X220751400Y-71348600D01*
X217741500Y-69329300D02*
X219760800Y-71348600D01*
X139431400Y-100061400D02*
X141097000Y-101727000D01*
%TO.N,GPIO26*%
X108991400Y-95061400D02*
X116076160Y-87976640D01*
X116076160Y-69074600D02*
X129677160Y-55473600D01*
X116076160Y-76149200D02*
X116076160Y-69074600D01*
X116076160Y-85240560D02*
X114630200Y-83794600D01*
X116076160Y-87976640D02*
X116076160Y-85240560D01*
%TO.N,GPIO25*%
X107510760Y-52578000D02*
X126085600Y-52578000D01*
X108762800Y-85028400D02*
X105916160Y-82181760D01*
X105916160Y-82181760D02*
X105916160Y-54172600D01*
X126085600Y-52578000D02*
X127137160Y-53629560D01*
X105916160Y-54172600D02*
X107510760Y-52578000D01*
X127137160Y-53629560D02*
X127137160Y-55473600D01*
%TO.N,3V3*%
X210854200Y-75759400D02*
X202152088Y-75759400D01*
X202152088Y-75759400D02*
X201051088Y-76860400D01*
X214249000Y-72364600D02*
X210854200Y-75759400D01*
X199212200Y-75021512D02*
X201051088Y-76860400D01*
X202996800Y-94284800D02*
X202996800Y-88722200D01*
X193903600Y-60934600D02*
X192802600Y-62035600D01*
X202996800Y-88722200D02*
X203911200Y-87807800D01*
X199110600Y-71958200D02*
X199212200Y-72059800D01*
X193903600Y-71958200D02*
X199110600Y-71958200D01*
X192802600Y-70857200D02*
X193903600Y-71958200D01*
X193903600Y-60934600D02*
X199237600Y-60934600D01*
X199212200Y-72059800D02*
X199212200Y-75021512D01*
X199237600Y-60934600D02*
X199263000Y-60909200D01*
X192802600Y-62035600D02*
X192802600Y-70857200D01*
%TO.N,Net-(C4-Pad1)*%
X194174200Y-75759400D02*
X162391000Y-75759400D01*
X161467800Y-76682600D02*
X161467800Y-80576686D01*
X137108050Y-94014200D02*
X117726800Y-94014200D01*
X150778400Y-91266086D02*
X150778400Y-92426714D01*
X117726800Y-94014200D02*
X116676600Y-92964000D01*
X161467800Y-80576686D02*
X150778400Y-91266086D01*
X150778400Y-92426714D02*
X149957714Y-93247400D01*
X148383470Y-92964000D02*
X138158250Y-92964000D01*
X195275200Y-76860400D02*
X194174200Y-75759400D01*
X148666870Y-93247400D02*
X148383470Y-92964000D01*
X138158250Y-92964000D02*
X137108050Y-94014200D01*
X162391000Y-75759400D02*
X161467800Y-76682600D01*
X149957714Y-93247400D02*
X148666870Y-93247400D01*
%TO.N,GPIO21*%
X126568200Y-82829400D02*
X120599200Y-82829400D01*
X173482000Y-53822600D02*
X172542200Y-54762400D01*
X126898400Y-83845400D02*
X126898400Y-83159600D01*
X126898400Y-83159600D02*
X126568200Y-82829400D01*
X174320200Y-53822600D02*
X173482000Y-53822600D01*
X119517160Y-81747360D02*
X119517160Y-80873600D01*
X120599200Y-82829400D02*
X119517160Y-81747360D01*
%TO.N,GPIO22*%
X118051143Y-82174600D02*
X113198160Y-82174600D01*
X121550743Y-85674200D02*
X118051143Y-82174600D01*
X193903600Y-64338200D02*
X197391050Y-64338200D01*
X200364000Y-60453150D02*
X194535550Y-54624700D01*
X194535550Y-54624700D02*
X176058400Y-54624700D01*
X113198160Y-82174600D02*
X111897160Y-80873600D01*
X176058400Y-54624700D02*
X173507400Y-52073700D01*
X200364000Y-61365250D02*
X200364000Y-60453150D01*
X197391050Y-64338200D02*
X200364000Y-61365250D01*
X173507400Y-52073700D02*
X171250500Y-54330600D01*
X128397000Y-85674200D02*
X121550743Y-85674200D01*
%TO.N,GPIO5*%
X158140400Y-60250700D02*
X158140400Y-61544200D01*
X158140400Y-61544200D02*
X158140400Y-61595000D01*
X167468400Y-50922700D02*
X158140400Y-60250700D01*
X193903600Y-53314600D02*
X191511700Y-50922700D01*
X191511700Y-50922700D02*
X167468400Y-50922700D01*
%TO.N,GPIO19*%
X201549000Y-88442800D02*
X201549000Y-83464400D01*
X201549000Y-83464400D02*
X205536800Y-79476600D01*
X131353560Y-74117200D02*
X177800000Y-74117200D01*
X124597160Y-80873600D02*
X131353560Y-74117200D01*
X177800000Y-74117200D02*
X196951600Y-74117200D01*
%TO.N,GPIO23*%
X181737000Y-55549800D02*
X165328600Y-55549800D01*
X165328600Y-55549800D02*
X155194000Y-65684400D01*
%TO.N,GPIO18*%
X179662500Y-86791800D02*
X190881000Y-86791800D01*
X162280600Y-78245657D02*
X162768257Y-77758000D01*
X162768257Y-77758000D02*
X170628700Y-77758000D01*
X170628700Y-77758000D02*
X179662500Y-86791800D01*
X162280600Y-83591400D02*
X162280600Y-78245657D01*
X158191200Y-85547200D02*
X160324800Y-85547200D01*
X160324800Y-85547200D02*
X162280600Y-83591400D01*
%TO.N,GPIO34*%
X163017200Y-78655600D02*
X163745200Y-79383600D01*
X120279160Y-58775600D02*
X116977160Y-55473600D01*
X171687200Y-79383600D02*
X181051200Y-88747600D01*
X163017200Y-78359000D02*
X163017200Y-78655600D01*
X121285000Y-58775600D02*
X120279160Y-58775600D01*
X163745200Y-79383600D02*
X171687200Y-79383600D01*
X203047600Y-98577400D02*
X206933800Y-98577400D01*
X193776600Y-89306400D02*
X203047600Y-98577400D01*
%TO.N,GPIO33*%
X164287200Y-80010000D02*
X164312600Y-79984600D01*
X164287200Y-88849200D02*
X164287200Y-80010000D01*
%TO.N,GPIO27*%
X127787400Y-90017600D02*
X130835400Y-86969600D01*
X130835400Y-86969600D02*
X130835400Y-83591400D01*
X128574800Y-68097400D02*
X137795000Y-58877200D01*
%TO.N,GPIO13*%
X124766660Y-69977000D02*
X138936160Y-55807500D01*
X122224800Y-69977000D02*
X124766660Y-69977000D01*
X138936160Y-55807500D02*
X138936160Y-54700394D01*
X139463954Y-54172600D02*
X141076160Y-54172600D01*
X141076160Y-54172600D02*
X142377160Y-55473600D01*
X138936160Y-54700394D02*
X139463954Y-54172600D01*
%TO.N,GPIO14*%
X118059200Y-71831200D02*
X131241800Y-58648600D01*
X118059200Y-74345800D02*
X118059200Y-71831200D01*
X131241800Y-58648600D02*
X131582160Y-58648600D01*
X131582160Y-58648600D02*
X134757160Y-55473600D01*
X116676600Y-90464000D02*
X116676600Y-84415200D01*
X116676600Y-84415200D02*
X118059200Y-83032600D01*
%TD*%
M02*
