M48
; DRILL file {KiCad 9.0.7} date 2026-03-26T21:02:08-0500
; FORMAT={-:-/ absolute / metric / decimal}
; #@! TF.CreationDate,2026-03-26T21:02:08-05:00
; #@! TF.GenerationSoftware,Kicad,Pcbnew,9.0.7
; #@! TF.FileFunction,Plated,1,2,PTH
FMAT,2
METRIC
; #@! TA.AperFunction,Plated,PTH,ViaDrill
T1C0.300
; #@! TA.AperFunction,Plated,PTH,ComponentDrill
T2C1.000
; #@! TA.AperFunction,Plated,PTH,ComponentDrill
T3C1.500
%
G90
G05
T1
X127.076Y-76.632
X134.493Y-76.733
X135.052Y-60.147
X135.052Y-60.147
X138.532Y-77.241
X140.665Y-59.157
T2
X133.096Y-55.087
X135.636Y-55.087
X138.176Y-55.087
X140.716Y-55.087
X158.296Y-76.784
X158.296Y-79.284
X158.296Y-81.784
X172.796Y-76.784
X172.796Y-81.784
T3
X124.689Y-95.58
X131.039Y-93.04
X143.764Y-95.606
X150.114Y-93.066
X162.738Y-95.631
X169.088Y-93.091
T3
G00X165.146Y-73.684
M15
G01X166.446Y-73.684
M16
G05
G00X165.146Y-84.884
M15
G01X166.446Y-84.884
M16
G05
M30
