%TF.GenerationSoftware,KiCad,Pcbnew,9.0.7*%
%TF.CreationDate,2026-03-29T18:43:26-05:00*%
%TF.ProjectId,Saxplayer,53617870-6c61-4796-9572-2e6b69636164,rev?*%
%TF.SameCoordinates,Original*%
%TF.FileFunction,Copper,L1,Top*%
%TF.FilePolarity,Positive*%
%FSLAX46Y46*%
G04 Gerber Fmt 4.6, Leading zero omitted, Abs format (unit mm)*
G04 Created by KiCad (PCBNEW 9.0.7) date 2026-03-29 18:43:26*
%MOMM*%
%LPD*%
G01*
G04 APERTURE LIST*
G04 Aperture macros list*
%AMRoundRect*
0 Rectangle with rounded corners*
0 $1 Rounding radius*
0 $2 $3 $4 $5 $6 $7 $8 $9 X,Y pos of 4 corners*
0 Add a 4 corners polygon primitive as box body*
4,1,4,$2,$3,$4,$5,$6,$7,$8,$9,$2,$3,0*
0 Add four circle primitives for the rounded corners*
1,1,$1+$1,$2,$3*
1,1,$1+$1,$4,$5*
1,1,$1+$1,$6,$7*
1,1,$1+$1,$8,$9*
0 Add four rect primitives between the rounded corners*
20,1,$1+$1,$2,$3,$4,$5,0*
20,1,$1+$1,$4,$5,$6,$7,0*
20,1,$1+$1,$6,$7,$8,$9,0*
20,1,$1+$1,$8,$9,$2,$3,0*%
G04 Aperture macros list end*
%TA.AperFunction,ComponentPad*%
%ADD10C,2.200000*%
%TD*%
%TA.AperFunction,SMDPad,CuDef*%
%ADD11R,1.600000X0.700000*%
%TD*%
%TA.AperFunction,SMDPad,CuDef*%
%ADD12R,2.200000X1.200000*%
%TD*%
%TA.AperFunction,SMDPad,CuDef*%
%ADD13R,1.400000X1.600000*%
%TD*%
%TA.AperFunction,SMDPad,CuDef*%
%ADD14R,1.400000X1.200000*%
%TD*%
%TA.AperFunction,ComponentPad*%
%ADD15R,1.508000X1.508000*%
%TD*%
%TA.AperFunction,ComponentPad*%
%ADD16C,1.508000*%
%TD*%
%TA.AperFunction,ComponentPad*%
%ADD17C,1.600000*%
%TD*%
%TA.AperFunction,SMDPad,CuDef*%
%ADD18R,2.200000X2.800000*%
%TD*%
%TA.AperFunction,SMDPad,CuDef*%
%ADD19R,2.800000X2.800000*%
%TD*%
%TA.AperFunction,ComponentPad*%
%ADD20RoundRect,0.250000X-0.550000X-0.550000X0.550000X-0.550000X0.550000X0.550000X-0.550000X0.550000X0*%
%TD*%
%TA.AperFunction,ComponentPad*%
%ADD21R,2.000000X2.000000*%
%TD*%
%TA.AperFunction,ComponentPad*%
%ADD22C,2.000000*%
%TD*%
%TA.AperFunction,ComponentPad*%
%ADD23R,3.200000X2.000000*%
%TD*%
%TA.AperFunction,ComponentPad*%
%ADD24R,1.200000X2.000000*%
%TD*%
%TA.AperFunction,ComponentPad*%
%ADD25O,1.200000X2.000000*%
%TD*%
%TA.AperFunction,ViaPad*%
%ADD26C,0.600000*%
%TD*%
%TA.AperFunction,Conductor*%
%ADD27C,0.200000*%
%TD*%
G04 APERTURE END LIST*
D10*
%TO.P,SW2,1,1*%
%TO.N,GPIO33*%
X174777400Y-89306400D03*
%TO.P,SW2,2,2*%
%TO.N,GND*%
X168427400Y-91846400D03*
%TD*%
D11*
%TO.P,J1,1,DAT2*%
%TO.N,unconnected-(J1-DAT2-Pad1)*%
X207531945Y-84262568D03*
%TO.P,J1,2,DAT3/CD*%
%TO.N,GPIO5*%
X207531945Y-85362568D03*
%TO.P,J1,3,CMD*%
%TO.N,GPIO23*%
X207531945Y-86462568D03*
%TO.P,J1,4,VDD*%
%TO.N,3V3*%
X207531945Y-87562568D03*
%TO.P,J1,5,CLK*%
%TO.N,GPIO18*%
X207531945Y-88662568D03*
%TO.P,J1,6,VSS*%
%TO.N,GND*%
X207531945Y-89762568D03*
%TO.P,J1,7,DAT0*%
%TO.N,GPIO19*%
X207531945Y-90862568D03*
%TO.P,J1,8,DAT1*%
%TO.N,unconnected-(J1-DAT1-Pad8)*%
X207531945Y-91962568D03*
%TO.P,J1,9,SHIELD*%
%TO.N,GND*%
X207531945Y-93062568D03*
D12*
%TO.P,J1,SH*%
%TO.N,N/C*%
X217631945Y-78762568D03*
D13*
X208031945Y-79662568D03*
D12*
X217631945Y-94262568D03*
D14*
X208031945Y-94262568D03*
%TD*%
D15*
%TO.P,DS1,1,VDD*%
%TO.N,3V3*%
X168427400Y-52073700D03*
D16*
%TO.P,DS1,2,GND*%
%TO.N,GND*%
X170967400Y-52073700D03*
%TO.P,DS1,3,SCK*%
%TO.N,GPIO22*%
X173507400Y-52073700D03*
%TO.P,DS1,4,SDA*%
%TO.N,GPIO21*%
X176047400Y-52073700D03*
%TD*%
D17*
%TO.P,R6,1*%
%TO.N,GPIO34*%
X206933800Y-98577400D03*
%TO.P,R6,2*%
%TO.N,3V3*%
X214553800Y-98577400D03*
%TD*%
D10*
%TO.P,SW1,1,1*%
%TO.N,GPIO32*%
X155727400Y-89306400D03*
%TO.P,SW1,2,2*%
%TO.N,GND*%
X149377400Y-91846400D03*
%TD*%
D17*
%TO.P,R5,1*%
%TO.N,3V3*%
X214249000Y-72364600D03*
%TO.P,R5,2*%
%TO.N,GPIO19*%
X206629000Y-72364600D03*
%TD*%
D18*
%TO.P,J2,R*%
%TO.N,Net-(C1-Pad1)*%
X217682000Y-63948800D03*
%TO.P,J2,S*%
%TO.N,GND*%
X219682000Y-56548800D03*
D19*
%TO.P,J2,T*%
%TO.N,Net-(C2-Pad1)*%
X210282000Y-56548800D03*
%TD*%
D20*
%TO.P,C3,1*%
%TO.N,3V3*%
X201051088Y-76860400D03*
D17*
%TO.P,C3,2*%
%TO.N,GND*%
X203051088Y-76860400D03*
%TD*%
D21*
%TO.P,SW4,A,A*%
%TO.N,GPIO14*%
X116676600Y-90464000D03*
D22*
%TO.P,SW4,B,B*%
%TO.N,GPIO13*%
X116676600Y-95464000D03*
%TO.P,SW4,C,C*%
%TO.N,Net-(C4-Pad1)*%
X116676600Y-92964000D03*
D23*
%TO.P,SW4,MP*%
%TO.N,N/C*%
X124176600Y-87364000D03*
X124176600Y-98564000D03*
D22*
%TO.P,SW4,S1,S1*%
%TO.N,GPIO27*%
X131176600Y-95464000D03*
%TO.P,SW4,S2,S2*%
%TO.N,Net-(C5-Pad1)*%
X131176600Y-90464000D03*
%TD*%
D10*
%TO.P,SW3,1,1*%
%TO.N,GPIO34*%
X193776600Y-89306400D03*
%TO.P,SW3,2,2*%
%TO.N,GND*%
X187426600Y-91846400D03*
%TD*%
D17*
%TO.P,R1,1*%
%TO.N,3V3*%
X193903600Y-60934600D03*
%TO.P,R1,2*%
%TO.N,GPIO5*%
X193903600Y-53314600D03*
%TD*%
%TO.P,C5,1*%
%TO.N,Net-(C5-Pad1)*%
X195153600Y-81280000D03*
%TO.P,C5,2*%
%TO.N,GND*%
X192653600Y-81280000D03*
%TD*%
%TO.P,C2,1*%
%TO.N,Net-(C2-Pad1)*%
X108762800Y-90028400D03*
%TO.P,C2,2*%
%TO.N,GPIO25*%
X108762800Y-85028400D03*
%TD*%
%TO.P,C4,1*%
%TO.N,Net-(C4-Pad1)*%
X195275200Y-76860400D03*
%TO.P,C4,2*%
%TO.N,GND*%
X192775200Y-76860400D03*
%TD*%
%TO.P,R3,1*%
%TO.N,3V3*%
X193903600Y-71958200D03*
%TO.P,R3,2*%
%TO.N,GPIO22*%
X193903600Y-64338200D03*
%TD*%
%TO.P,C1,1*%
%TO.N,Net-(C1-Pad1)*%
X108991400Y-100061400D03*
%TO.P,C1,2*%
%TO.N,GPIO26*%
X108991400Y-95061400D03*
%TD*%
%TO.P,R4,1*%
%TO.N,3V3*%
X199212200Y-72059800D03*
%TO.P,R4,2*%
%TO.N,GPIO21*%
X199212200Y-64439800D03*
%TD*%
%TO.P,R2,1*%
%TO.N,3V3*%
X199263000Y-60909200D03*
%TO.P,R2,2*%
%TO.N,GPIO23*%
X199263000Y-53289200D03*
%TD*%
D24*
%TO.P,U1,1,3V3*%
%TO.N,3V3*%
X106817160Y-55473600D03*
D25*
%TO.P,U1,2,CHIP_PU*%
%TO.N,unconnected-(U1-CHIP_PU-Pad2)*%
X109357160Y-55473600D03*
%TO.P,U1,3,SENSOR_VP/GPIO36/ADC1_CH0*%
%TO.N,unconnected-(U1-SENSOR_VP{slash}GPIO36{slash}ADC1_CH0-Pad3)*%
X111897160Y-55473600D03*
%TO.P,U1,4,SENSOR_VN/GPIO39/ADC1_CH3*%
%TO.N,unconnected-(U1-SENSOR_VN{slash}GPIO39{slash}ADC1_CH3-Pad4)*%
X114437160Y-55473600D03*
%TO.P,U1,5,VDET_1/GPIO34/ADC1_CH6*%
%TO.N,GPIO34*%
X116977160Y-55473600D03*
%TO.P,U1,6,VDET_2/GPIO35/ADC1_CH7*%
%TO.N,unconnected-(U1-VDET_2{slash}GPIO35{slash}ADC1_CH7-Pad6)*%
X119517160Y-55473600D03*
%TO.P,U1,7,32K_XP/GPIO32/ADC1_CH4*%
%TO.N,GPIO32*%
X122057160Y-55473600D03*
%TO.P,U1,8,32K_XN/GPIO33/ADC1_CH5*%
%TO.N,GPIO33*%
X124597160Y-55473600D03*
%TO.P,U1,9,DAC_1/ADC2_CH8/GPIO25*%
%TO.N,GPIO25*%
X127137160Y-55473600D03*
%TO.P,U1,10,DAC_2/ADC2_CH9/GPIO26*%
%TO.N,GPIO26*%
X129677160Y-55473600D03*
%TO.P,U1,11,ADC2_CH7/GPIO27*%
%TO.N,GPIO27*%
X132217160Y-55473600D03*
%TO.P,U1,12,MTMS/GPIO14/ADC2_CH6*%
%TO.N,GPIO14*%
X134757160Y-55473600D03*
%TO.P,U1,13,MTDI/GPIO12/ADC2_CH5*%
%TO.N,unconnected-(U1-MTDI{slash}GPIO12{slash}ADC2_CH5-Pad13)*%
X137297160Y-55473600D03*
%TO.P,U1,14,GND*%
%TO.N,GND*%
X139837160Y-55473600D03*
%TO.P,U1,15,MTCK/GPIO13/ADC2_CH4*%
%TO.N,GPIO13*%
X142377160Y-55473600D03*
%TO.P,U1,16,SD_DATA2/GPIO9*%
%TO.N,unconnected-(U1-SD_DATA2{slash}GPIO9-Pad16)*%
X144917160Y-55473600D03*
%TO.P,U1,17,SD_DATA3/GPIO10*%
%TO.N,unconnected-(U1-SD_DATA3{slash}GPIO10-Pad17)*%
X147457160Y-55473600D03*
%TO.P,U1,18,CMD*%
%TO.N,unconnected-(U1-CMD-Pad18)*%
X149997160Y-55473600D03*
%TO.P,U1,19,5V*%
%TO.N,unconnected-(U1-5V-Pad19)*%
X152537160Y-55473600D03*
%TO.P,U1,20,SD_CLK/GPIO6*%
%TO.N,unconnected-(U1-SD_CLK{slash}GPIO6-Pad20)*%
X152534440Y-80869920D03*
%TO.P,U1,21,SD_DATA0/GPIO7*%
%TO.N,unconnected-(U1-SD_DATA0{slash}GPIO7-Pad21)*%
X149994440Y-80869920D03*
%TO.P,U1,22,SD_DATA1/GPIO8*%
%TO.N,unconnected-(U1-SD_DATA1{slash}GPIO8-Pad22)*%
X147457160Y-80873600D03*
%TO.P,U1,23,MTDO/GPIO15/ADC2_CH3*%
%TO.N,unconnected-(U1-MTDO{slash}GPIO15{slash}ADC2_CH3-Pad23)*%
X144917160Y-80873600D03*
%TO.P,U1,24,ADC2_CH2/GPIO2*%
%TO.N,unconnected-(U1-ADC2_CH2{slash}GPIO2-Pad24)*%
X142377160Y-80873600D03*
%TO.P,U1,25,GPIO0/BOOT/ADC2_CH1*%
%TO.N,unconnected-(U1-GPIO0{slash}BOOT{slash}ADC2_CH1-Pad25)*%
X139837160Y-80873600D03*
%TO.P,U1,26,ADC2_CH0/GPIO4*%
%TO.N,unconnected-(U1-ADC2_CH0{slash}GPIO4-Pad26)*%
X137297160Y-80873600D03*
%TO.P,U1,27,GPIO16*%
%TO.N,unconnected-(U1-GPIO16-Pad27)*%
X134757160Y-80873600D03*
%TO.P,U1,28,GPIO17*%
%TO.N,unconnected-(U1-GPIO17-Pad28)*%
X132217160Y-80873600D03*
%TO.P,U1,29,GPIO5*%
%TO.N,GPIO5*%
X129677160Y-80873600D03*
%TO.P,U1,30,GPIO18*%
%TO.N,GPIO18*%
X127137160Y-80873600D03*
%TO.P,U1,31,GPIO19*%
%TO.N,GPIO19*%
X124597160Y-80873600D03*
%TO.P,U1,32,GND*%
%TO.N,GND*%
X122057160Y-80873600D03*
%TO.P,U1,33,GPIO21*%
%TO.N,GPIO21*%
X119517160Y-80873600D03*
%TO.P,U1,34,U0RXD/GPIO3*%
%TO.N,unconnected-(U1-U0RXD{slash}GPIO3-Pad34)*%
X116977160Y-80873600D03*
%TO.P,U1,35,U0TXD/GPIO1*%
%TO.N,unconnected-(U1-U0TXD{slash}GPIO1-Pad35)*%
X114437160Y-80873600D03*
%TO.P,U1,36,GPIO22*%
%TO.N,GPIO22*%
X111897160Y-80873600D03*
%TO.P,U1,37,GPIO23*%
%TO.N,GPIO23*%
X109357160Y-80873600D03*
%TO.P,U1,38,GND*%
%TO.N,GND*%
X106817160Y-80873600D03*
%TD*%
D26*
%TO.N,Net-(C1-Pad1)*%
X217741500Y-69329300D03*
X141224000Y-101727000D03*
X220751400Y-71348600D03*
%TO.N,GPIO26*%
X116076160Y-76149200D03*
X114630200Y-83794600D03*
%TO.N,3V3*%
X203911200Y-87807800D03*
X202996800Y-94284800D03*
%TO.N,GPIO21*%
X174320200Y-53822600D03*
X126898400Y-83845400D03*
X172542200Y-54762400D03*
%TO.N,GPIO22*%
X128397000Y-85674200D03*
X171250500Y-54330600D03*
%TO.N,GPIO5*%
X158140400Y-61544200D03*
%TO.N,GPIO19*%
X201549000Y-88442800D03*
X196951600Y-74117200D03*
X205536800Y-79476600D03*
%TO.N,GPIO23*%
X155194000Y-65684400D03*
X181737000Y-55549800D03*
%TO.N,GPIO18*%
X190881000Y-86791800D03*
X158191200Y-85547200D03*
%TO.N,GPIO34*%
X121285000Y-58775600D03*
X163017200Y-78359000D03*
X181051200Y-88747600D03*
%TO.N,GPIO33*%
X164287200Y-88849200D03*
X164312600Y-79984600D03*
%TO.N,GPIO27*%
X137795000Y-58877200D03*
X127787400Y-90017600D03*
X130835400Y-83591400D03*
X128574800Y-68097400D03*
%TO.N,GPIO13*%
X122224800Y-69977000D03*
%TO.N,GPIO14*%
X118059200Y-74345800D03*
X118059200Y-83032600D03*
%TD*%
D27*
%TO.N,GND*%
X170967400Y-52073700D02*
X165002100Y-58039000D01*
X149377400Y-91846400D02*
X204796113Y-91846400D01*
X220014800Y-56881600D02*
X220014800Y-73202800D01*
X204796113Y-91846400D02*
X206012281Y-93062568D01*
X139837160Y-57287160D02*
X139837160Y-55473600D01*
X208250322Y-89762568D02*
X207531945Y-89762568D01*
X206012281Y-93062568D02*
X207531945Y-93062568D01*
X208632945Y-92613568D02*
X208632945Y-90145191D01*
X207531945Y-93062568D02*
X208183945Y-93062568D01*
X219682000Y-56548800D02*
X220014800Y-56881600D01*
X165002100Y-58039000D02*
X140589000Y-58039000D01*
X208632945Y-90145191D02*
X208250322Y-89762568D01*
X208183945Y-93062568D02*
X208632945Y-92613568D01*
X216230945Y-76986655D02*
X216230945Y-81838055D01*
X208306432Y-89762568D02*
X207531945Y-89762568D01*
X220014800Y-73202800D02*
X216230945Y-76986655D01*
X140589000Y-58039000D02*
X139837160Y-57287160D01*
X216230945Y-81838055D02*
X208306432Y-89762568D01*
%TO.N,Net-(C1-Pad1)*%
X217682000Y-69109400D02*
X217682000Y-63948800D01*
X141097000Y-101727000D02*
X141224000Y-101727000D01*
X217741500Y-69329300D02*
X217741500Y-69168900D01*
X212961250Y-101727000D02*
X220395800Y-94292450D01*
X220751400Y-83286600D02*
X220751400Y-71348600D01*
X141224000Y-101727000D02*
X212961250Y-101727000D01*
X217741500Y-69168900D02*
X217682000Y-69109400D01*
X220395800Y-83642200D02*
X220751400Y-83286600D01*
X220395800Y-94292450D02*
X220395800Y-83642200D01*
%TO.N,Net-(C2-Pad1)*%
X210282000Y-56548800D02*
X215963200Y-50867600D01*
X126288800Y-103327200D02*
X122061600Y-103327200D01*
X221445800Y-101159600D02*
X219278200Y-103327200D01*
X221445800Y-51545200D02*
X221445800Y-101159600D01*
X215963200Y-50867600D02*
X220768200Y-50867600D01*
X219278200Y-103327200D02*
X126288800Y-103327200D01*
X220768200Y-50867600D02*
X221445800Y-51545200D01*
X122061600Y-103327200D02*
X108762800Y-90028400D01*
%TO.N,GPIO26*%
X116076160Y-82348640D02*
X116076160Y-76149200D01*
X114630200Y-83794600D02*
X116076160Y-82348640D01*
%TO.N,3V3*%
X204343000Y-95631000D02*
X202996800Y-94284800D01*
X171404396Y-51018700D02*
X169482400Y-51018700D01*
X214553800Y-98577400D02*
X211607400Y-95631000D01*
X180446304Y-60934600D02*
X172022400Y-52510696D01*
X172022400Y-52510696D02*
X172022400Y-51636704D01*
X203911200Y-87807800D02*
X204156432Y-87562568D01*
X169482400Y-51018700D02*
X168427400Y-52073700D01*
X201051088Y-84947688D02*
X203911200Y-87807800D01*
X168427400Y-52073700D02*
X167276400Y-50922700D01*
X193903600Y-60934600D02*
X180446304Y-60934600D01*
X204156432Y-87562568D02*
X207531945Y-87562568D01*
X172022400Y-51636704D02*
X171404396Y-51018700D01*
X111368060Y-50922700D02*
X106817160Y-55473600D01*
X211607400Y-95631000D02*
X204343000Y-95631000D01*
X201051088Y-76860400D02*
X201051088Y-84947688D01*
X167276400Y-50922700D02*
X111368060Y-50922700D01*
%TO.N,Net-(C5-Pad1)*%
X133883600Y-87757000D02*
X188676600Y-87757000D01*
X188676600Y-87757000D02*
X195153600Y-81280000D01*
X131176600Y-90464000D02*
X133883600Y-87757000D01*
%TO.N,GPIO21*%
X194606000Y-59833600D02*
X183807300Y-59833600D01*
X172542200Y-77444600D02*
X162814000Y-87172800D01*
X176047400Y-52073700D02*
X174320200Y-53800900D01*
X129045657Y-87172800D02*
X126898400Y-85025543D01*
X162814000Y-87172800D02*
X129235200Y-87172800D01*
X199212200Y-64439800D02*
X194606000Y-59833600D01*
X183807300Y-59833600D02*
X176047400Y-52073700D01*
X126898400Y-85025543D02*
X126898400Y-83845400D01*
X129235200Y-87172800D02*
X129045657Y-87172800D01*
X172542200Y-54762400D02*
X172542200Y-77444600D01*
X174320200Y-53800900D02*
X174320200Y-53822600D01*
%TO.N,GPIO22*%
X171250500Y-54330600D02*
X171250500Y-77186900D01*
X129133600Y-86410800D02*
X128397000Y-85674200D01*
X162026600Y-86410800D02*
X129133600Y-86410800D01*
X171250500Y-77186900D02*
X162026600Y-86410800D01*
%TO.N,GPIO5*%
X158140400Y-63703200D02*
X146100800Y-75742800D01*
X207730000Y-72820650D02*
X206430945Y-74119705D01*
X208632945Y-83611568D02*
X208632945Y-85261568D01*
X206430945Y-81409568D02*
X208632945Y-83611568D01*
X146100800Y-75742800D02*
X133680200Y-75742800D01*
X207730000Y-67141000D02*
X207730000Y-72820650D01*
X206430945Y-74119705D02*
X206430945Y-81409568D01*
X208531945Y-85362568D02*
X207531945Y-85362568D01*
X129677160Y-79745840D02*
X129677160Y-80873600D01*
X193903600Y-53314600D02*
X207730000Y-67141000D01*
X158140400Y-61544200D02*
X158140400Y-63703200D01*
X208632945Y-85261568D02*
X208531945Y-85362568D01*
X133680200Y-75742800D02*
X129677160Y-79745840D01*
%TO.N,GPIO19*%
X205536800Y-79476600D02*
X205536800Y-73456800D01*
X205536800Y-73456800D02*
X206629000Y-72364600D01*
X203968768Y-90862568D02*
X201549000Y-88442800D01*
X196951600Y-74117200D02*
X204876400Y-74117200D01*
X204876400Y-74117200D02*
X206629000Y-72364600D01*
X207531945Y-90862568D02*
X203968768Y-90862568D01*
%TO.N,GPIO23*%
X209032945Y-86343655D02*
X208914032Y-86462568D01*
X208914032Y-86462568D02*
X207531945Y-86462568D01*
X196896500Y-50922700D02*
X186364100Y-50922700D01*
X186364100Y-50922700D02*
X181737000Y-55549800D01*
X199263000Y-53289200D02*
X209032945Y-63059145D01*
X124546360Y-65684400D02*
X109357160Y-80873600D01*
X199263000Y-53289200D02*
X196896500Y-50922700D01*
X155194000Y-65684400D02*
X124546360Y-65684400D01*
X209032945Y-63059145D02*
X209032945Y-86343655D01*
%TO.N,GPIO18*%
X134366000Y-83769200D02*
X133426200Y-84709000D01*
X202618711Y-88662568D02*
X200747943Y-86791800D01*
X127137160Y-82073600D02*
X127137160Y-80873600D01*
X199542400Y-86791800D02*
X190881000Y-86791800D01*
X207531945Y-88662568D02*
X202618711Y-88662568D01*
X155117800Y-83769200D02*
X134366000Y-83769200D01*
X133426200Y-84709000D02*
X129772560Y-84709000D01*
X200747943Y-86791800D02*
X199542400Y-86791800D01*
X158191200Y-85547200D02*
X156895800Y-85547200D01*
X156895800Y-85547200D02*
X155117800Y-83769200D01*
X129772560Y-84709000D02*
X127137160Y-82073600D01*
%TO.N,GPIO34*%
X163017200Y-67437000D02*
X159613600Y-64033400D01*
X122803600Y-60294200D02*
X121285000Y-58775600D01*
X159613600Y-64033400D02*
X159613600Y-62167457D01*
X159613600Y-62167457D02*
X157740343Y-60294200D01*
X163017200Y-78359000D02*
X163017200Y-67437000D01*
X193776600Y-89306400D02*
X181610000Y-89306400D01*
X181610000Y-89306400D02*
X181051200Y-88747600D01*
X157740343Y-60294200D02*
X122803600Y-60294200D01*
%TO.N,GPIO32*%
X155727400Y-89306400D02*
X134174092Y-89306400D01*
X110258160Y-81646806D02*
X109730366Y-82174600D01*
X108456160Y-81646806D02*
X108456160Y-69074600D01*
X126077600Y-67530600D02*
X125501400Y-66954400D01*
X110258160Y-80539700D02*
X110258160Y-81646806D01*
X125501400Y-66954400D02*
X123843460Y-66954400D01*
X108456160Y-69074600D02*
X122057160Y-55473600D01*
X108983954Y-82174600D02*
X108456160Y-81646806D01*
X131715492Y-91765000D02*
X130637708Y-91765000D01*
X123843460Y-66954400D02*
X110258160Y-80539700D01*
X126077600Y-87204892D02*
X126077600Y-67530600D01*
X130637708Y-91765000D02*
X126077600Y-87204892D01*
X134174092Y-89306400D02*
X131715492Y-91765000D01*
X109730366Y-82174600D02*
X108983954Y-82174600D01*
%TO.N,GPIO33*%
X129016760Y-59893200D02*
X124597160Y-55473600D01*
X164312600Y-64516000D02*
X159689800Y-59893200D01*
X164744400Y-89306400D02*
X164287200Y-88849200D01*
X164312600Y-79984600D02*
X164312600Y-64516000D01*
X159689800Y-59893200D02*
X129016760Y-59893200D01*
X174777400Y-89306400D02*
X164744400Y-89306400D01*
%TO.N,GPIO27*%
X128574800Y-82448400D02*
X128574800Y-68097400D01*
X137795000Y-58877200D02*
X135620760Y-58877200D01*
X131176600Y-95464000D02*
X127787400Y-92074800D01*
X130073400Y-82829400D02*
X128955800Y-82829400D01*
X135620760Y-58877200D02*
X132217160Y-55473600D01*
X127787400Y-92074800D02*
X127787400Y-90017600D01*
X130835400Y-83591400D02*
X130073400Y-82829400D01*
X128955800Y-82829400D02*
X128574800Y-82448400D01*
%TO.N,GPIO13*%
X120418160Y-91722440D02*
X120418160Y-71783640D01*
X116676600Y-95464000D02*
X120418160Y-91722440D01*
X120418160Y-71783640D02*
X122224800Y-69977000D01*
%TO.N,GPIO14*%
X118059200Y-83032600D02*
X118059200Y-74345800D01*
%TD*%
M02*
